#!OML:ASF F:\VICON\USERDATA\INSTALL\rory3\rory3.ASF
:FULLY-SPECIFIED
:DEGREES
63
root 0.4604511380676651 17.96915779802065 19.47886761893745 -3.8019277079929057 0.6148967089699631 1.4430055023772983
lfemur -0.12437465737276376 -3.2772926362159676 -26.332105618084427
ltibia 21.775818308101965
lfoot -7.461233419554054 -3.09553311404479
ltoes -14.460064084785998
rfemur -25.154931451422506 0.6616104880803131 21.56031935760197
rtibia 58.59464644409669
rfoot -5.834198862192306 -10.56399494813599
rtoes 5.534614002330976
lowerback 10.244346135580873 -0.026301980661860958 -3.04722210708233
upperback 0.3251749650718644 -0.38948724262503287 0.6429070309399947
thorax -5.219312414399405 -0.11129965213363413 2.450982724299665
lowerneck -16.24263753367877 -2.782022903932975 -2.8125165337129956
upperneck 20.20057138905149 -3.5573056829821463 1.6626380791604052
head 9.111974309814537 -1.6716184631386342 0.4622663483508713
lclavicle -1.9528983707995604e-15 9.072630867503002e-16
lhumerus -30.16117281755349 -0.8739321721849946 81.84801584323763
lradius 32.57732274144201
lwrist 6.664666113554546
lhand -26.92117871261402 24.729661065401253
lfingers 7.12502
lthumb -0.47937081539686843 54.53484739398385
rclavicle -1.954407718460595e-15 9.056977428314556e-16
rhumerus -30.323394565921603 -17.108086092348515 -79.70027027209876
rradius 25.220339714282446
rwrist 5.121708690670526
rhand -16.939123344393558 23.162590288889024
rfingers 7.12502
rthumb 9.482006851829857 -6.588053636313612
64
root 0.4339909095273423 17.91643549536083 20.216453428528766 -3.56967449038639 1.3297219248309022 1.6271780163292293
lfemur 2.3659220951514754 -3.152126816230971 -26.619779532528845
ltibia 19.564744562756452
lfoot -7.355630528571748 -2.620879481391168
ltoes -15.510089603425893
rfemur -26.537446944359473 1.594082680313592 20.998834934176866
rtibia 49.79821131987282
rfoot -4.6104714856488505 -13.08535541394966
rtoes 5.462101175234233
lowerback 10.367234256979229 -0.30003421830233323 -3.429278285226104
upperback 0.36235068332230264 -0.8308276937614525 0.7706388658981383
thorax -5.079194381687491 -0.3265702133784302 2.948091000910688
lowerneck -16.365730046971567 -2.799172890943351 -2.9306535945429655
upperneck 20.18927889353997 -3.579792150942839 1.7996102655556911
head 9.102671031580732 -1.6782044383864247 0.540185251393187
lclavicle -1.953647455816743e-15 9.063266577113026e-16
lhumerus -29.61215433218532 -1.364481066612124 81.78555733633078
lradius 33.34221067158808
lwrist 6.445883695359781
lhand -26.847103513350127 24.95421348906752
lfingers 7.12502
lthumb -0.3909315589786655 54.91192761218095
rclavicle -1.9544044123642027e-15 9.057010973494275e-16
rhumerus -30.31042518030752 -17.371170145725632 -79.0974357418389
rradius 24.454522879434666
rwrist 6.000762373762839
rhand -16.998607887851872 23.478612005163786
rfingers 7.12502
rthumb 9.44129318911715 -6.272324729167356
65
root 0.4221598339937099 17.884468277288825 21.02420582391312 -3.1317853107033535 1.5986233172178559 1.972759719443752
lfemur 5.084420980376477 -2.813312630069965 -26.948738118823734
ltibia 16.35658919926468
lfoot -7.660844064537731 -2.140011271801743
ltoes -16.6774945947554
rfemur -26.684147267952213 3.452616218187869 19.690757829760745
rtibia 38.768965536383675
rfoot -3.191215938474646 -15.80665660814555
rtoes 4.585263693067481
lowerback 10.145639004264687 -0.4644649248543239 -3.8092040237879186
upperback 0.40030179543572386 -1.0830652047272333 0.835115715392026
thorax -4.920423370301888 -0.45512499702126397 3.3368611866200864
lowerneck -16.476507986667674 -2.8032601510178914 -2.9848554822101097
upperneck 20.15775276494869 -3.583689665447913 1.8925546369858752
head 9.090489966658664 -1.6781097953206667 0.6015309057016344
lclavicle -1.9558870222605993e-15 9.043785423004249e-16
lhumerus -29.356977416186645 -1.760309004481852 81.66579685850967
lradius 33.96839481534311
lwrist 6.095288526623363
lhand -26.713844259115596 25.149732804864026
lfingers 7.12502
lthumb -0.23932251942796184 55.24964741429692
rclavicle -1.954788687269216e-15 9.05347116913845e-16
rhumerus -30.588580647078892 -18.195879506555098 -78.65326265932865
rradius 23.964649628693337
rwrist 6.717956159407904
rhand -17.077832460136374 23.604695864921233
rfingers 7.12502
rthumb 9.371515212907369 -6.121116087069048
66
root 0.4006788989120525 17.878657605904973 21.824818549013315 -2.345022545540686 1.716697741546739 2.3910158375202593
lfemur 7.926971307652252 -2.5071503567374065 -27.30928953838603
ltibia 13.026451419289362
lfoot -7.011671846929461 -1.4692018972015424
ltoes -16.52866649909456
rfemur -26.429196045715173 5.444019846553019 17.84135205403062
rtibia 27.61569626101703
rfoot -2.3511571545533503 -17.361470295589093
rtoes 3.1100612660414706
lowerback 9.611285316700762 -0.6074370170836035 -4.147430437782062
upperback 0.34881804807286165 -1.3080133953437612 0.8705727554904347
thorax -4.835983184020065 -0.5611892050172662 3.67404217881753
lowerneck -16.572969272118684 -2.7944438857459986 -2.993595475954381
upperneck 20.095703814622645 -3.568321885827146 1.9346409889444796
head 9.07205920539824 -1.669977262388835 0.6427465280657316
lclavicle -1.9559825289441513e-15 9.04177957489864e-16
lhumerus -29.14707281090923 -1.8782725188329594 81.57885765064911
lradius 34.28567683470313
lwrist 5.730927409955816
lhand -26.553715381591218 25.271932515756653
lfingers 7.12502
lthumb -0.03524430271797929 55.521030866119624
rclavicle -1.9549225436093003e-15 9.052240604716085e-16
rhumerus -30.84046418893884 -18.999385625572774 -78.1260175390369
rradius 23.39051812540644
rwrist 7.291351285715912
rhand -17.167550151908863 23.607134087023603
rfingers 7.12502
rthumb 9.288529717484321 -6.085468887866641
67
root 0.3556107289559727 17.860136308822366 22.676660468204112 -1.6799865908087304 1.930434599336229 2.07519776830731
lfemur 10.36876200455654 -2.5718026288250493 -26.843019255592758
ltibia 10.89927095271435
lfoot -7.269730966067416 -1.4471594039807956
ltoes -16.725981062895357
rfemur -25.777931582709755 7.258335339247652 16.826265634888582
rtibia 19.063156851268722
rfoot -3.258950511270622 -16.38488483307472
rtoes 1.9634732065356708
lowerback 9.118627983295474 -0.8306713086408778 -3.9707132168339108
upperback 0.2531149890756791 -1.5760605903889138 1.0163034363021568
thorax -4.794169841507457 -0.6806349807713186 3.9276344147960973
lowerneck -16.68108428455112 -2.7799722337385817 -2.9888262832927226
upperneck 20.073001591164324 -3.5391008283050023 1.9490696350267998
head 9.072311969174379 -1.657893812306649 0.6730463523858667
lclavicle -1.956557869066149e-15 9.036880686921957e-16
lhumerus -28.91937003955295 -1.715302535432362 81.57838660422134
lradius 34.154833884120805
lwrist 5.3831473372806755
lhand -26.415102180487846 25.293720538994933
lfingers 7.12502
lthumb 0.16720008596099445 55.68241710237442
rclavicle -1.9545702816830344e-15 9.055487399217925e-16
rhumerus -30.97813729373864 -19.611488041595415 -77.6960850716111
rradius 22.852063919999694
rwrist 7.839653158586776
rhand -17.244880698813457 23.548283397906964
rfingers 7.12502
rthumb 9.206355013076326 -6.08059875315357
